<svg width="145" height="145" xmlns="http://www.w3.org/2000/svg">
                  
                    <circle cx="78" cy="76" r="75" fill="#00cc6600" stroke="#00ff7f" stroke-width="0"></circle>
                    <g transform="translate(17, 120) scale(0.085, -0.085)" fill="#000000" stroke="none">
<path d="M756 1261 c-3 -5 -27 -9 -52 -9 -26 -1 -52 -6 -58 -12 -5 -5 -22 -10
-37 -10 -15 0 -31 -4 -34 -10 -3 -5 -13 -10 -21 -10 -8 0 -23 -9 -34 -20 -11
-11 -28 -20 -39 -20 -33 0 -53 -62 -58 -179 -5 -100 -4 -105 11 -84 17 22 47
98 44 111 -3 14 20 57 38 74 32 28 105 52 158 50 231 -6 251 -13 295 -106 l27
-59 -4 64 c-3 35 -7 66 -11 69 -3 3 -6 14 -6 25 1 23 -16 55 -28 55 -5 0 -23
10 -39 22 -27 19 -32 19 -39 6 -8 -14 -14 -11 -43 18 -33 33 -59 43 -70 25z"></path>
<path d="M533 888 c-31 -32 -31 -55 -1 -34 36 25 82 18 90 -13 2 -8 -7 -15
-22 -17 -24 -4 -24 -4 -5 11 19 14 18 14 -12 4 -35 -12 -60 -35 -49 -46 4 -4
37 -7 74 -6 l67 1 -45 -11 c-25 -6 -37 -12 -28 -14 30 -7 96 16 103 36 6 20
-16 84 -33 95 -5 3 -34 8 -63 12 -48 5 -56 4 -76 -18z"></path>
<path d="M825 888 c-50 -27 -52 -79 -4 -103 32 -17 53 -19 44 -5 -3 5 5 9 17
8 47 -2 59 2 56 18 -2 9 -13 21 -26 25 -15 6 -21 5 -17 -1 3 -6 0 -10 -7 -10
-7 0 -19 9 -26 20 -10 17 -9 20 13 26 14 3 37 -1 56 -10 39 -19 39 -19 39 -2
0 38 -97 61 -145 34z"></path>
<path d="M431 688 c-1 -16 4 -28 9 -28 12 0 12 8 0 35 -8 18 -9 17 -9 -7z"></path>
<path d="M685 651 c-3 -6 -12 -8 -18 -4 -7 3 -4 -3 6 -15 19 -20 18 -21 -20
-41 -49 -24 -60 -38 -65 -76 -2 -26 -7 -30 -31 -29 -19 0 -26 -4 -23 -13 3 -7
3 -13 1 -13 -11 0 -55 45 -55 56 0 7 -4 15 -9 18 -13 8 6 -69 27 -107 19 -35
62 -99 73 -107 3 -3 5 -13 4 -22 -2 -9 3 -19 11 -22 7 -3 11 -12 8 -21 -3 -8
-2 -15 3 -15 5 0 10 -6 10 -14 0 -25 -40 -9 -73 29 -19 21 -34 52 -39 78 l-7
42 -12 -32 c-10 -29 -31 -43 -201 -129 -279 -141 -275 -138 -275 -179 l0 -35
720 0 c453 0 720 4 720 10 0 29 -128 110 -175 110 -28 0 -182 77 -188 94 -4 9
-23 24 -45 35 -21 11 -53 33 -71 50 -39 37 -41 37 -41 11 0 -30 -34 -91 -67
-121 -47 -44 -75 -57 -131 -62 -41 -4 -57 -1 -75 14 l-22 18 33 1 c17 0 32 4
32 9 0 5 14 13 32 16 34 8 88 46 144 103 42 41 107 172 98 195 -7 19 -20 22
-29 7 -13 -21 -31 -9 -33 23 -1 22 -11 38 -29 52 -48 36 -89 77 -70 71 11 -3
17 0 17 9 0 17 -26 20 -35 5 -6 -10 -47 -8 -76 5 -10 3 -20 1 -24 -4z m141
-106 c18 -14 18 -15 -6 -6 -26 9 -133 6 -150 -4 -6 -3 -10 -2 -10 4 0 15 20
19 86 20 39 1 67 -4 80 -14z m51 -62 c13 -20 14 -28 5 -42 -7 -9 -16 -26 -22
-38 -6 -14 -18 -23 -32 -23 -13 0 -30 -5 -38 -10 -10 -6 -22 -5 -36 5 -13 8
-26 10 -35 4 -35 -22 -89 4 -89 43 0 10 -4 18 -10 18 -11 0 -13 30 -4 54 5 14
25 16 126 15 115 -1 119 -2 135 -26z m-506 -251 c-5 -10 -17 -24 -25 -31 -12
-10 -14 -9 -12 5 1 9 11 23 21 30 25 18 28 18 16 -4z m-89 -49 c-6 -2 -10 -9
-6 -14 5 -8 -3 -11 -22 -8 -4 0 -10 -5 -14 -11 -5 -8 -10 -9 -14 -2 -6 11 39
42 59 41 6 0 4 -3 -3 -6z m-68 -42 c3 -5 -2 -15 -12 -22 -15 -12 -16 -12 -5 2
7 9 10 19 6 22 -3 4 -4 7 0 7 3 0 8 -4 11 -9z m-39 -21 c-3 -5 -12 -10 -18
-10 -7 0 -6 4 3 10 19 12 23 12 15 0z m-85 -44 c0 -2 -7 -7 -16 -10 -8 -3 -12
-2 -9 4 6 10 25 14 25 6z"></path>
<path d="M705 471 c-19 -8 -19 -8 3 -20 12 -6 22 -18 22 -26 0 -18 16 -20 23
-2 4 9 6 9 6 -1 1 -7 12 -1 25 15 17 19 21 30 13 35 -15 10 -66 9 -92 -1z"></path>
<path d="M1210 160 c8 -5 20 -10 25 -10 6 0 3 5 -5 10 -8 5 -19 10 -25 10 -5
0 -3 -5 5 -10z"></path>
</g>
                    
                </svg>